<svg width="56" height="61" viewBox="0 0 56 61" fill="none" xmlns="http://www.w3.org/2000/svg">
<path d="M37.9241 25.9685C38.824 28.0254 39.3382 30.2751 39.3382 32.7177C39.3382 41.9095 31.882 49.3657 22.6902 49.3657C13.4984 49.3657 6.04215 41.9095 6.04215 32.7177C6.04215 23.4616 13.4984 16.0054 22.6902 16.0054C25.0685 16.0054 27.3825 16.5196 29.4394 17.4195L33.4889 12.5986C30.275 10.8631 26.6112 9.89893 22.7545 9.89893C10.2202 9.89893 0 20.1192 0 32.6534C0 40.6882 4.24236 47.8231 10.5416 51.8083L7.00632 58.0433C6.68493 58.6218 6.68493 59.3931 7.00632 60.0359C7.32771 60.6144 8.03477 61.0001 8.67756 61.0001H36.7028C37.4099 61.0001 38.0527 60.6144 38.3741 60.0359C38.6955 59.4574 38.7597 58.6861 38.3741 58.0433L34.8388 51.8083C41.2023 47.7588 45.3804 40.6882 45.3804 32.6534C45.3804 28.7967 44.4162 25.1329 42.6807 21.9189L37.9241 25.9685Z" fill="white"/>
<path d="M25.9692 21.5333C24.9407 21.2119 23.7837 21.019 22.691 21.019C16.2632 21.019 11.0566 26.2256 11.0566 32.6534C11.0566 39.0169 16.2632 44.2877 22.691 44.2877C29.0545 44.2877 34.3253 39.0812 34.3253 32.6534C34.3253 31.4964 34.1325 30.4037 33.8754 29.3752L25.9692 35.9316C24.0408 37.5385 21.084 37.2814 19.4771 35.3531C17.9987 33.6176 18.063 31.1107 19.4771 29.4395L25.9692 21.5333Z" fill="white"/>
<path d="M55.2786 7.52055C55.15 7.13488 54.7643 6.87777 54.3144 6.87777H48.4651V1.02845C48.4651 0.642782 48.208 0.257113 47.8223 0.0642782C47.4366 -0.0642782 46.9867 9.5782e-08 46.7296 0.257113L39.7232 7.26344C39.5304 7.45627 39.4019 7.71338 39.4019 7.97049V11.8915L21.404 31.3678C20.7612 32.0748 20.7612 33.1675 21.404 33.8746C22.111 34.6459 23.268 34.6459 23.9751 33.9389L43.3871 15.8767H47.3081C47.5652 15.8767 47.8223 15.7482 48.0151 15.5553L55.0215 8.549C55.3428 8.35616 55.4071 7.90622 55.2786 7.52055Z" fill="white"/>
</svg>
