<svg width="62" height="61" viewBox="0 0 62 61" fill="none" xmlns="http://www.w3.org/2000/svg">
<path d="M61.0345 59.6624L50.4304 29.0921C50.3349 28.7099 49.9528 28.5189 49.5706 28.4233C49.1885 28.4233 48.8064 28.6144 48.6153 28.9965L35.2408 58.1339L15.7522 32.2446C15.5611 31.958 15.2745 31.8625 14.8924 31.8625C14.6058 31.8625 14.3192 32.0536 14.1281 32.3402L0.0848497 59.5669C-0.201748 60.2356 0.275914 60.9999 0.944641 60.9999C14.6058 60.9999 48.5198 60.9999 60.1747 60.9999C60.8435 60.9999 61.3211 60.3312 61.0345 59.6624Z" fill="#FDFDFE"/>
<path d="M40.2078 42.7534L31.4188 25.5576C31.2278 25.1754 30.8456 24.9844 30.4635 24.9844C30.0814 24.9844 29.7948 25.271 29.6037 25.6531L24.2539 40.4606L34.7625 54.4084L40.2078 42.7534Z" fill="#FDFDFE"/>
<path d="M30.3678 23.0736H30.4633C30.8454 23.0736 31.2276 23.1692 31.5142 23.2647V15.7176C34.4757 17.2462 37.2461 16.0998 40.2076 14.7623C43.3602 13.3293 45.844 12.2785 48.4234 14.5712C48.71 14.8578 49.0921 14.8578 49.4743 14.7623C49.8564 14.5712 50.0475 14.2847 50.0475 13.9025V2.53416C50.0475 2.24757 49.9519 2.0565 49.7609 1.86544C46.5128 -1.09607 43.3602 -0.0452113 39.4434 1.67437C36.2908 3.10736 33.8069 4.15821 31.2276 1.86544C31.132 1.86544 29.6035 0.910113 29.6035 2.53416C29.6035 14.5712 29.6035 20.4943 29.6035 23.2647C29.8901 23.1692 30.0812 23.1692 30.3678 23.0736Z" fill="#FDFDFE"/>
</svg>
