<svg width="346" height="363" viewBox="0 0 346 363" fill="none" xmlns="http://www.w3.org/2000/svg">
<path fill-rule="evenodd" clip-rule="evenodd" d="M169.833 2.1363C226.725 -3.8601 291.339 2.41422 326.511 47.4809C360.589 91.146 340.363 151.279 328.429 205.35C317.147 256.466 306.639 311.467 262.145 339.116C214.428 368.768 153.239 369.191 102.058 346.02C51.6836 323.214 16.3573 276.314 4.31797 222.391C-7.12712 171.13 10.5304 119.464 42.0963 77.4579C73.3256 35.9002 118.102 7.5887 169.833 2.1363Z" fill="#BDBDBD"/>
<path fill-rule="evenodd" clip-rule="evenodd" d="M169.833 2.1363C226.725 -3.8601 291.339 2.41422 326.511 47.4809C360.589 91.146 340.363 151.279 328.429 205.35C317.147 256.466 306.639 311.467 262.145 339.116C214.428 368.768 153.239 369.191 102.058 346.02C51.6836 323.214 16.3573 276.314 4.31797 222.391C-7.12712 171.13 10.5304 119.464 42.0963 77.4579C73.3256 35.9002 118.102 7.5887 169.833 2.1363Z" fill="#BABABA"/>
<path fill-rule="evenodd" clip-rule="evenodd" d="M169.833 2.1363C226.725 -3.8601 291.339 2.41422 326.511 47.4809C360.589 91.146 340.363 151.279 328.429 205.35C317.147 256.466 306.639 311.467 262.145 339.116C214.428 368.768 153.239 369.191 102.058 346.02C51.6836 323.214 16.3573 276.314 4.31797 222.391C-7.12712 171.13 10.5304 119.464 42.0963 77.4579C73.3256 35.9002 118.102 7.5887 169.833 2.1363Z" fill="url(#paint0_radial_2304_500)"/>
<defs>
<radialGradient id="paint0_radial_2304_500" cx="0" cy="0" r="1" gradientUnits="userSpaceOnUse" gradientTransform="translate(298.494 52.1033) rotate(124.827) scale(382.609 694.882)">
<stop stop-color="#FDAB01"/>
<stop offset="1" stop-color="#FDAB01" stop-opacity="0"/>
</radialGradient>
</defs>
</svg>
